%
M48
M72
T01C0.0120
T02C0.0157
T03C0.0256
T04C0.0400
%
T01
X7751Y2020
X7751Y2420
X7751Y2820
X7751Y3220
X7751Y3620
X7751Y4020
X8831Y2820
X9044Y1870
X9438Y1870
X10081Y2870
X10331Y3020
X10081Y3170
X10331Y3320
X9339Y4575
X10061Y4645
T02
X11531Y3759
X11531Y2113
X8131Y2113
X8131Y3759
T03
X8694Y3550
X10969Y3550
T04
X8028Y5920
X8831Y6717
X8028Y6920
X10831Y6717
M30
