G75*
G70*
%OFA0B0*%
%FSLAX24Y24*%
%IPPOS*%
%LPD*%
%AMOC8*
5,1,8,0,0,1.08239X$1,22.5*
%
%ADD10C,0.0060*%
%ADD11C,0.0050*%
%ADD12C,0.0000*%
%ADD13C,0.0080*%
%ADD14C,0.0020*%
%ADD15C,0.0040*%
D10*
X007528Y005670D02*
X007778Y005420D01*
X008278Y005420D01*
X008528Y005670D01*
X008528Y006170D01*
X008278Y006420D01*
X008528Y006670D01*
X008528Y007170D01*
X008278Y007420D01*
X007778Y007420D01*
X007528Y007170D01*
X007528Y006670D01*
X007778Y006420D01*
X007528Y006170D01*
X007528Y005670D01*
X007979Y005261D02*
X008086Y005261D01*
X008139Y005208D01*
X007926Y004994D01*
X007926Y005208D01*
X007979Y005261D01*
X008139Y005208D02*
X008139Y004994D01*
X008086Y004941D01*
X007979Y004941D01*
X007926Y004994D01*
X008009Y004781D02*
X007955Y004728D01*
X008009Y004781D02*
X008115Y004781D01*
X008169Y004728D01*
X008169Y004514D01*
X008115Y004461D01*
X008009Y004461D01*
X007955Y004514D01*
X008305Y004621D02*
X008519Y004621D01*
X008655Y004674D02*
X008655Y004728D01*
X008708Y004781D01*
X008868Y004781D01*
X008868Y004461D01*
X008708Y004461D01*
X008655Y004514D01*
X008655Y004568D01*
X008708Y004621D01*
X008868Y004621D01*
X009005Y004674D02*
X009005Y004728D01*
X009058Y004781D01*
X009165Y004781D01*
X009218Y004728D01*
X009165Y004621D02*
X009058Y004621D01*
X009005Y004674D01*
X009005Y004514D02*
X009058Y004461D01*
X009165Y004461D01*
X009218Y004514D01*
X009218Y004568D01*
X009165Y004621D01*
X009355Y004728D02*
X009408Y004781D01*
X009515Y004781D01*
X009568Y004728D01*
X009568Y004461D01*
X009355Y004461D02*
X009355Y004728D01*
X009554Y004941D02*
X009501Y004994D01*
X009714Y005208D01*
X009661Y005261D01*
X009554Y005261D01*
X009501Y005208D01*
X009501Y004994D01*
X009554Y004941D02*
X009661Y004941D01*
X009714Y004994D01*
X009714Y005208D01*
X009850Y005261D02*
X010064Y005261D01*
X009957Y005261D02*
X009957Y004941D01*
X010064Y005048D01*
X010200Y004941D02*
X010414Y005261D01*
X010604Y005261D02*
X010604Y004941D01*
X010764Y005101D01*
X010550Y005101D01*
X010618Y004781D02*
X010618Y004461D01*
X010458Y004461D01*
X010404Y004514D01*
X010404Y004621D01*
X010458Y004674D01*
X010618Y004674D01*
X010900Y004994D02*
X010953Y004941D01*
X011060Y004941D01*
X011114Y004994D01*
X011250Y004994D02*
X011250Y005208D01*
X011303Y005261D01*
X011410Y005261D01*
X011464Y005208D01*
X011250Y004994D01*
X011303Y004941D01*
X011410Y004941D01*
X011464Y004994D01*
X011464Y005208D01*
X011600Y005261D02*
X011813Y005261D01*
X011600Y005048D01*
X011600Y004994D01*
X011653Y004941D01*
X011760Y004941D01*
X011813Y004994D01*
X011784Y004781D02*
X011678Y004674D01*
X011571Y004781D01*
X011571Y004461D01*
X011434Y004461D02*
X011328Y004461D01*
X011381Y004461D02*
X011381Y004781D01*
X011434Y004781D02*
X011328Y004781D01*
X011201Y004781D02*
X011094Y004781D01*
X011148Y004781D02*
X011148Y004461D01*
X011201Y004461D02*
X011094Y004461D01*
X010900Y004994D02*
X010900Y005048D01*
X011114Y005261D01*
X010900Y005261D01*
X010268Y004781D02*
X010108Y004781D01*
X010055Y004728D01*
X010055Y004514D01*
X010108Y004461D01*
X010268Y004461D01*
X010268Y004781D01*
X009014Y004941D02*
X009014Y005155D01*
X008907Y005261D01*
X008801Y005155D01*
X008801Y004941D01*
X008664Y005048D02*
X008558Y004941D01*
X008558Y005261D01*
X008664Y005261D02*
X008451Y005261D01*
X008314Y005261D02*
X008314Y005208D01*
X008261Y005208D01*
X008261Y005261D01*
X008314Y005261D01*
X008655Y004674D02*
X008708Y004621D01*
X008278Y006420D02*
X007778Y006420D01*
X011784Y004781D02*
X011784Y004461D01*
D11*
X007381Y001520D02*
X007381Y007520D01*
X011281Y007520D01*
X011681Y007120D01*
X011681Y005720D01*
X012081Y005320D01*
X012281Y005320D01*
X012281Y001520D01*
X007381Y001520D01*
X009248Y005658D02*
X009310Y005658D01*
X009363Y005693D01*
X009385Y005738D01*
X009385Y005798D01*
X009365Y005835D01*
X009343Y005863D01*
X009310Y005878D01*
X009275Y005885D02*
X009210Y005858D01*
X009178Y005795D01*
X009183Y005723D01*
X009225Y005673D01*
X009248Y005658D01*
X010198Y005803D02*
X010198Y005823D01*
X011258Y005983D02*
X011288Y006003D01*
D12*
X010841Y003550D02*
X010843Y003572D01*
X010849Y003594D01*
X010858Y003614D01*
X010871Y003632D01*
X010887Y003648D01*
X010905Y003661D01*
X010925Y003670D01*
X010947Y003676D01*
X010969Y003678D01*
X010991Y003676D01*
X011013Y003670D01*
X011033Y003661D01*
X011051Y003648D01*
X011067Y003632D01*
X011080Y003614D01*
X011089Y003594D01*
X011095Y003572D01*
X011097Y003550D01*
X011095Y003528D01*
X011089Y003506D01*
X011080Y003486D01*
X011067Y003468D01*
X011051Y003452D01*
X011033Y003439D01*
X011013Y003430D01*
X010991Y003424D01*
X010969Y003422D01*
X010947Y003424D01*
X010925Y003430D01*
X010905Y003439D01*
X010887Y003452D01*
X010871Y003468D01*
X010858Y003486D01*
X010849Y003506D01*
X010843Y003528D01*
X010841Y003550D01*
X008566Y003550D02*
X008568Y003572D01*
X008574Y003594D01*
X008583Y003614D01*
X008596Y003632D01*
X008612Y003648D01*
X008630Y003661D01*
X008650Y003670D01*
X008672Y003676D01*
X008694Y003678D01*
X008716Y003676D01*
X008738Y003670D01*
X008758Y003661D01*
X008776Y003648D01*
X008792Y003632D01*
X008805Y003614D01*
X008814Y003594D01*
X008820Y003572D01*
X008822Y003550D01*
X008820Y003528D01*
X008814Y003506D01*
X008805Y003486D01*
X008792Y003468D01*
X008776Y003452D01*
X008758Y003439D01*
X008738Y003430D01*
X008716Y003424D01*
X008694Y003422D01*
X008672Y003424D01*
X008650Y003430D01*
X008630Y003439D01*
X008612Y003452D01*
X008596Y003468D01*
X008583Y003486D01*
X008574Y003506D01*
X008568Y003528D01*
X008566Y003550D01*
D13*
X008131Y003253D02*
X008131Y002544D01*
X011532Y002544D02*
X011532Y003253D01*
D14*
X011083Y005538D02*
X011093Y005545D01*
X011100Y005558D01*
X011100Y005573D01*
X011095Y005583D01*
X011085Y005593D01*
X011075Y005593D01*
X011065Y005563D01*
X011075Y005553D01*
X011085Y005560D01*
X011083Y005578D01*
X011075Y005590D02*
X011068Y005593D01*
X011058Y005588D01*
X011053Y005580D01*
X011048Y005570D01*
X011048Y005563D01*
X011050Y005553D01*
X011060Y005543D01*
X011068Y005538D01*
X011083Y005538D01*
X011098Y005640D02*
X011098Y005895D01*
X011053Y005895D01*
X011053Y005640D01*
X011098Y005640D01*
X011085Y005653D02*
X011080Y005883D01*
X011065Y005883D01*
X011070Y005653D01*
X011185Y005708D02*
X011200Y005685D01*
X011220Y005663D01*
X011240Y005650D01*
X011268Y005638D01*
X011283Y005635D01*
X011325Y005635D01*
X011358Y005645D01*
X011380Y005658D01*
X011398Y005675D01*
X011413Y005695D01*
X011423Y005713D01*
X011430Y005745D01*
X011430Y005790D01*
X011425Y005810D01*
X011415Y005835D01*
X011400Y005858D01*
X011378Y005880D01*
X011328Y005900D01*
X011285Y005900D01*
X011238Y005885D01*
X011220Y005880D01*
X011220Y005925D01*
X011235Y005943D01*
X011255Y005960D01*
X011275Y005970D01*
X011295Y005975D01*
X011325Y005975D01*
X011375Y005963D01*
X011385Y006003D01*
X011323Y006020D01*
X011293Y006020D01*
X011258Y006015D01*
X011235Y006003D01*
X011210Y005985D01*
X011190Y005960D01*
X011180Y005935D01*
X011173Y005908D01*
X011173Y005750D01*
X011178Y005730D01*
X011185Y005708D01*
X011193Y005730D02*
X011228Y005675D01*
X011270Y005655D01*
X011315Y005650D01*
X011368Y005670D01*
X011410Y005720D01*
X011413Y005795D01*
X011400Y005828D01*
X011368Y005873D01*
X011300Y005893D01*
X011220Y005870D01*
X011220Y005848D01*
X011285Y005878D01*
X011343Y005870D01*
X011383Y005835D01*
X011398Y005783D01*
X011390Y005715D01*
X011360Y005680D01*
X011325Y005665D01*
X011273Y005670D01*
X011233Y005683D01*
X011208Y005730D01*
X011208Y005738D02*
X011205Y005933D01*
X011253Y005983D01*
X011310Y005990D01*
X011365Y005978D01*
X011378Y005988D02*
X011310Y006005D01*
X011250Y005998D01*
X011208Y005958D01*
X011190Y005920D01*
X011190Y005740D01*
X011208Y005738D01*
X011220Y005738D02*
X011220Y005830D01*
X011215Y005828D02*
X011243Y005845D01*
X011275Y005858D01*
X011283Y005860D01*
X011325Y005860D01*
X011348Y005850D01*
X011365Y005830D01*
X011383Y005798D01*
X011385Y005733D01*
X011383Y005735D02*
X011375Y005720D01*
X011363Y005705D01*
X011350Y005693D01*
X011333Y005680D01*
X011315Y005678D01*
X011278Y005678D01*
X011258Y005688D01*
X011238Y005703D01*
X011225Y005723D01*
X011220Y005738D01*
X010970Y005893D02*
X010970Y005523D01*
X010925Y005523D01*
X010925Y005895D01*
X010970Y005895D01*
X010955Y005885D02*
X010958Y005535D01*
X010938Y005535D01*
X010938Y005885D01*
X010838Y005853D02*
X010823Y005875D01*
X010800Y005888D01*
X010778Y005893D01*
X010758Y005898D01*
X010740Y005885D01*
X010778Y005878D01*
X010810Y005868D01*
X010825Y005840D01*
X010838Y005810D01*
X010838Y005585D01*
X010818Y005583D01*
X010820Y005813D01*
X010798Y005858D01*
X010738Y005875D01*
X010728Y005858D02*
X010763Y005858D01*
X010778Y005850D01*
X010788Y005843D01*
X010795Y005835D01*
X010803Y005820D01*
X010803Y005683D01*
X010795Y005680D01*
X010725Y005680D01*
X010725Y005638D01*
X010805Y005638D01*
X010803Y005630D01*
X010803Y005570D01*
X010850Y005570D01*
X010850Y005818D01*
X010838Y005853D01*
X010753Y005898D02*
X010728Y005898D01*
X010728Y005858D01*
X010668Y005820D02*
X010675Y005795D01*
X010678Y005770D01*
X010673Y005740D01*
X010665Y005713D01*
X010640Y005675D01*
X010615Y005655D01*
X010588Y005640D01*
X010570Y005635D01*
X010523Y005635D01*
X010495Y005643D01*
X010473Y005655D01*
X010455Y005670D01*
X010438Y005690D01*
X010423Y005713D01*
X010579Y005801D01*
X010599Y005771D01*
X010495Y005710D01*
X010498Y005698D01*
X010505Y005685D01*
X010518Y005678D01*
X010570Y005678D01*
X010593Y005690D01*
X010613Y005710D01*
X010620Y005723D01*
X010628Y005733D01*
X010630Y005763D01*
X010630Y005785D01*
X010620Y005810D01*
X010608Y005835D01*
X010588Y005848D01*
X010573Y005855D01*
X010565Y005860D01*
X010525Y005860D01*
X010510Y005853D01*
X010493Y005840D01*
X010478Y005825D01*
X010468Y005808D01*
X010460Y005778D01*
X010415Y005785D01*
X010425Y005818D01*
X010440Y005850D01*
X010458Y005870D01*
X010475Y005883D01*
X010495Y005893D01*
X010518Y005900D01*
X010568Y005900D01*
X010588Y005895D01*
X010613Y005885D01*
X010633Y005870D01*
X010650Y005850D01*
X010668Y005820D01*
X010660Y005795D02*
X010630Y005858D01*
X010570Y005888D01*
X010515Y005888D01*
X010458Y005850D01*
X010433Y005793D01*
X010450Y005795D02*
X010465Y005838D01*
X010513Y005868D01*
X010528Y005875D01*
X010570Y005875D01*
X010618Y005850D01*
X010645Y005788D01*
X010640Y005728D01*
X010620Y005693D01*
X010578Y005668D01*
X010525Y005665D01*
X010498Y005678D01*
X010485Y005695D01*
X010480Y005713D01*
X010593Y005778D01*
X010585Y005790D01*
X010443Y005708D01*
X010478Y005668D01*
X010465Y005708D01*
X010478Y005685D02*
X010518Y005648D01*
X010535Y005648D01*
X010573Y005648D02*
X010635Y005685D01*
X010653Y005728D01*
X010660Y005795D01*
X010738Y005670D02*
X010738Y005653D01*
X010808Y005653D01*
X010810Y005668D02*
X010738Y005670D01*
X010573Y005650D02*
X010485Y005663D01*
X010360Y005683D02*
X010363Y005700D01*
X010363Y005715D01*
X010355Y005733D01*
X010343Y005750D01*
X010305Y005775D01*
X010228Y005808D01*
X010218Y005820D01*
X010213Y005833D01*
X010223Y005845D01*
X010235Y005855D01*
X010363Y005855D01*
X010363Y005895D01*
X010248Y005895D01*
X010208Y005888D01*
X010188Y005875D01*
X010173Y005853D01*
X010173Y005810D01*
X010180Y005790D01*
X010198Y005775D01*
X010305Y005728D01*
X010315Y005718D01*
X010318Y005713D01*
X010318Y005695D01*
X010313Y005685D01*
X010310Y005683D01*
X010303Y005680D01*
X010185Y005680D01*
X010185Y005640D01*
X010298Y005640D01*
X010320Y005645D01*
X010335Y005653D01*
X010350Y005668D01*
X010360Y005683D01*
X010340Y005673D02*
X010345Y005720D01*
X010320Y005750D01*
X010215Y005798D01*
X010205Y005828D01*
X010200Y005848D01*
X010225Y005865D01*
X010235Y005870D02*
X010350Y005870D01*
X010355Y005873D01*
X010328Y005875D01*
X010353Y005883D02*
X010225Y005880D01*
X010235Y005870D01*
X010218Y005880D02*
X010188Y005850D01*
X010195Y005800D01*
X010218Y005778D01*
X010323Y005733D01*
X010335Y005713D01*
X010325Y005683D01*
X010310Y005668D01*
X010200Y005665D01*
X010198Y005655D01*
X010310Y005658D01*
X010340Y005673D01*
X010360Y005893D02*
X010363Y005895D01*
X010115Y005793D02*
X010115Y005743D01*
X010108Y005718D01*
X010098Y005695D01*
X010080Y005673D01*
X010058Y005653D01*
X010035Y005643D01*
X010010Y005635D01*
X009970Y005635D01*
X009955Y005638D01*
X009935Y005645D01*
X009905Y005663D01*
X009885Y005683D01*
X009870Y005710D01*
X009863Y005730D01*
X009858Y005755D01*
X009858Y005895D01*
X009888Y005895D01*
X009893Y005895D02*
X009900Y005895D01*
X009910Y005883D01*
X009918Y005883D01*
X009923Y005885D01*
X009970Y005900D01*
X010013Y005900D01*
X010043Y005888D01*
X010065Y005878D01*
X010083Y005860D01*
X010103Y005830D01*
X010115Y005793D01*
X010098Y005803D02*
X010058Y005865D01*
X010010Y005888D01*
X009968Y005883D01*
X009925Y005865D01*
X009905Y005873D01*
X009890Y005883D01*
X009890Y005873D01*
X009920Y005855D01*
X009885Y005865D01*
X009895Y005843D01*
X009885Y005843D01*
X009893Y005743D01*
X009920Y005685D01*
X009978Y005665D01*
X010035Y005673D01*
X010075Y005710D01*
X010085Y005785D01*
X010070Y005828D01*
X010040Y005863D01*
X009968Y005878D01*
X009963Y005863D02*
X009943Y005855D01*
X009925Y005843D01*
X009923Y005840D01*
X009915Y005848D01*
X009908Y005843D02*
X009905Y005840D01*
X009903Y005835D01*
X009905Y005740D01*
X009910Y005728D01*
X009920Y005708D01*
X009938Y005690D01*
X009958Y005680D01*
X009965Y005678D01*
X010008Y005678D01*
X010030Y005685D01*
X010048Y005698D01*
X010060Y005715D01*
X010070Y005733D01*
X010070Y005803D01*
X010060Y005818D01*
X010043Y005843D01*
X010023Y005858D01*
X010005Y005863D01*
X009963Y005863D01*
X009870Y005888D02*
X009875Y005750D01*
X009898Y005690D01*
X009928Y005668D01*
X009973Y005653D01*
X010018Y005653D01*
X010058Y005670D01*
X010093Y005718D01*
X010100Y005750D01*
X010098Y005803D01*
X009770Y005860D02*
X009770Y005880D01*
X009768Y005888D01*
X009758Y005898D01*
X009748Y005900D01*
X009730Y005883D01*
X009728Y005865D01*
X009740Y005855D01*
X009753Y005865D01*
X009750Y005880D01*
X009743Y005873D01*
X009743Y005900D02*
X009733Y005900D01*
X009725Y005898D01*
X009715Y005890D01*
X009713Y005883D01*
X009713Y005865D01*
X009718Y005855D01*
X009730Y005843D01*
X009753Y005843D01*
X009763Y005850D01*
X009770Y005860D01*
X009630Y005810D02*
X009618Y005835D01*
X009605Y005850D01*
X009590Y005865D01*
X009570Y005880D01*
X009553Y005888D01*
X009533Y005893D01*
X009505Y005898D01*
X009463Y005898D01*
X009463Y005855D01*
X009513Y005855D01*
X009530Y005850D01*
X009553Y005840D01*
X009570Y005823D01*
X009583Y005805D01*
X009588Y005793D01*
X009590Y005788D01*
X009590Y005748D01*
X009580Y005733D01*
X009568Y005710D01*
X009545Y005695D01*
X009530Y005688D01*
X009505Y005683D01*
X009463Y005683D01*
X009463Y005640D01*
X009513Y005640D01*
X009535Y005643D01*
X009558Y005650D01*
X009583Y005665D01*
X009600Y005683D01*
X009613Y005698D01*
X009623Y005718D01*
X009630Y005738D01*
X009635Y005755D01*
X009635Y005785D01*
X009630Y005810D01*
X009618Y005800D02*
X009618Y005733D01*
X009580Y005683D01*
X009533Y005655D01*
X009478Y005653D01*
X009478Y005668D01*
X009533Y005670D01*
X009578Y005703D01*
X009603Y005738D01*
X009600Y005803D01*
X009570Y005845D01*
X009533Y005865D01*
X009478Y005870D01*
X009473Y005885D02*
X009540Y005880D01*
X009590Y005848D01*
X009618Y005800D01*
X009508Y005898D02*
X009505Y005898D01*
X009398Y005830D02*
X009388Y005848D01*
X009370Y005865D01*
X009350Y005883D01*
X009330Y005893D01*
X009305Y005900D01*
X009295Y005900D01*
X009293Y005900D02*
X009260Y005900D01*
X009238Y005895D01*
X009213Y005885D01*
X009190Y005865D01*
X009173Y005840D01*
X009160Y005823D01*
X009155Y005798D01*
X009155Y005740D01*
X009163Y005713D01*
X009173Y005693D01*
X009210Y005655D01*
X009238Y005640D01*
X009265Y005635D01*
X009308Y005635D01*
X009335Y005645D01*
X009363Y005663D01*
X009385Y005685D01*
X009400Y005708D01*
X009410Y005745D01*
X009410Y005793D01*
X009405Y005810D01*
X009398Y005830D01*
X009355Y005815D02*
X009343Y005835D01*
X009325Y005850D01*
X009308Y005860D01*
X009268Y005860D01*
X009275Y005863D02*
X009255Y005858D01*
X009235Y005848D01*
X009223Y005835D01*
X009210Y005818D01*
X009205Y005805D01*
X009203Y005795D01*
X009203Y005743D01*
X009210Y005723D01*
X009223Y005703D01*
X009238Y005688D01*
X009253Y005680D01*
X009260Y005678D01*
X009300Y005678D01*
X009318Y005683D01*
X009338Y005695D01*
X009348Y005708D01*
X009360Y005728D01*
X009365Y005743D01*
X009365Y005793D01*
X009355Y005815D01*
X009090Y005898D02*
X009090Y005725D01*
X009080Y005690D01*
X009065Y005665D01*
X009043Y005648D01*
X009010Y005635D01*
X008970Y005635D01*
X008950Y005643D01*
X008925Y005658D01*
X008915Y005668D01*
X008905Y005668D01*
X008893Y005660D01*
X008878Y005648D01*
X008860Y005638D01*
X008848Y005635D01*
X008813Y005635D01*
X008795Y005640D01*
X008775Y005650D01*
X008758Y005665D01*
X008745Y005680D01*
X008735Y005703D01*
X008730Y005718D01*
X008728Y005740D01*
X008728Y005895D01*
X008773Y005895D01*
X008773Y005723D01*
X008780Y005705D01*
X008790Y005690D01*
X008805Y005685D01*
X008815Y005680D01*
X008855Y005680D01*
X008873Y005695D01*
X008883Y005710D01*
X008885Y005715D01*
X008885Y005895D01*
X008930Y005895D01*
X008930Y005715D01*
X008943Y005698D01*
X008955Y005688D01*
X008975Y005678D01*
X009005Y005678D01*
X009023Y005685D01*
X009033Y005695D01*
X009040Y005708D01*
X009048Y005723D01*
X009048Y005898D01*
X009090Y005898D01*
D15*
X009068Y005875D02*
X009070Y005725D01*
X009035Y005670D01*
X008998Y005655D01*
X008945Y005670D01*
X008913Y005695D01*
X008908Y005883D01*
X008748Y005875D02*
X008750Y005720D01*
X008778Y005675D01*
X008828Y005660D01*
X008865Y005663D01*
X008898Y005690D01*
M02*
