G75*
G70*
%OFA0B0*%
%FSLAX24Y24*%
%IPPOS*%
%LPD*%
%AMOC8*
5,1,8,0,0,1.08239X$1,22.5*
%
%ADD10C,0.0050*%
%ADD11R,0.0118X0.0472*%
%ADD12R,0.0236X0.0472*%
%ADD13C,0.0000*%
%ADD14C,0.0256*%
%ADD15C,0.0004*%
%ADD16OC8,0.0800*%
%ADD17C,0.0800*%
D10*
X007381Y001520D02*
X007381Y007520D01*
X011281Y007520D01*
X011681Y007120D01*
X011681Y005720D01*
X012081Y005320D01*
X012281Y005320D01*
X012281Y001520D01*
X007381Y001520D01*
D11*
X009143Y004050D03*
X009339Y004050D03*
X009536Y004050D03*
X009733Y004050D03*
X009930Y004050D03*
X010127Y004050D03*
X010324Y004050D03*
X010520Y004050D03*
D12*
X010796Y004050D03*
X011101Y004050D03*
X008867Y004050D03*
X008562Y004050D03*
D13*
X008566Y003550D02*
X008568Y003572D01*
X008574Y003594D01*
X008583Y003614D01*
X008596Y003632D01*
X008612Y003648D01*
X008630Y003661D01*
X008650Y003670D01*
X008672Y003676D01*
X008694Y003678D01*
X008716Y003676D01*
X008738Y003670D01*
X008758Y003661D01*
X008776Y003648D01*
X008792Y003632D01*
X008805Y003614D01*
X008814Y003594D01*
X008820Y003572D01*
X008822Y003550D01*
X008820Y003528D01*
X008814Y003506D01*
X008805Y003486D01*
X008792Y003468D01*
X008776Y003452D01*
X008758Y003439D01*
X008738Y003430D01*
X008716Y003424D01*
X008694Y003422D01*
X008672Y003424D01*
X008650Y003430D01*
X008630Y003439D01*
X008612Y003452D01*
X008596Y003468D01*
X008583Y003486D01*
X008574Y003506D01*
X008568Y003528D01*
X008566Y003550D01*
X010841Y003550D02*
X010843Y003572D01*
X010849Y003594D01*
X010858Y003614D01*
X010871Y003632D01*
X010887Y003648D01*
X010905Y003661D01*
X010925Y003670D01*
X010947Y003676D01*
X010969Y003678D01*
X010991Y003676D01*
X011013Y003670D01*
X011033Y003661D01*
X011051Y003648D01*
X011067Y003632D01*
X011080Y003614D01*
X011089Y003594D01*
X011095Y003572D01*
X011097Y003550D01*
X011095Y003528D01*
X011089Y003506D01*
X011080Y003486D01*
X011067Y003468D01*
X011051Y003452D01*
X011033Y003439D01*
X011013Y003430D01*
X010991Y003424D01*
X010969Y003422D01*
X010947Y003424D01*
X010925Y003430D01*
X010905Y003439D01*
X010887Y003452D01*
X010871Y003468D01*
X010858Y003486D01*
X010849Y003506D01*
X010843Y003528D01*
X010841Y003550D01*
D14*
X010969Y003550D03*
X008694Y003550D03*
D15*
X008367Y003551D02*
X007894Y003551D01*
X007894Y003553D02*
X008367Y003553D01*
X008367Y003556D02*
X007894Y003556D01*
X007894Y003558D02*
X008367Y003558D01*
X008367Y003560D02*
X007894Y003560D01*
X007894Y003563D02*
X008367Y003563D01*
X008367Y003565D02*
X007894Y003565D01*
X007894Y003568D02*
X008367Y003568D01*
X008367Y003570D02*
X007894Y003570D01*
X007894Y003573D02*
X008367Y003573D01*
X008367Y003575D02*
X007894Y003575D01*
X007894Y003578D02*
X008367Y003578D01*
X008367Y003580D02*
X007894Y003580D01*
X007894Y003582D02*
X008367Y003582D01*
X008367Y003585D02*
X007894Y003585D01*
X007894Y003587D02*
X008367Y003587D01*
X008367Y003590D02*
X007894Y003590D01*
X007894Y003592D02*
X008367Y003592D01*
X008367Y003595D02*
X007894Y003595D01*
X007894Y003597D02*
X008367Y003597D01*
X008367Y003599D02*
X007894Y003599D01*
X007894Y003602D02*
X008367Y003602D01*
X008367Y003604D02*
X007894Y003604D01*
X007894Y003607D02*
X008367Y003607D01*
X008367Y003609D02*
X007894Y003609D01*
X007894Y003612D02*
X008367Y003612D01*
X008367Y003614D02*
X007894Y003614D01*
X007894Y003617D02*
X008367Y003617D01*
X008367Y003619D02*
X007894Y003619D01*
X007894Y003621D02*
X008367Y003621D01*
X008367Y003624D02*
X007894Y003624D01*
X007894Y003626D02*
X008367Y003626D01*
X008367Y003629D02*
X007894Y003629D01*
X007894Y003631D02*
X008367Y003631D01*
X008367Y003634D02*
X007894Y003634D01*
X007894Y003636D02*
X008367Y003636D01*
X008367Y003638D02*
X007894Y003638D01*
X007894Y003641D02*
X008367Y003641D01*
X008367Y003643D02*
X007894Y003643D01*
X007894Y003646D02*
X008367Y003646D01*
X008367Y003648D02*
X007894Y003648D01*
X007894Y003651D02*
X008367Y003651D01*
X008367Y003653D02*
X007894Y003653D01*
X007894Y003656D02*
X008367Y003656D01*
X008367Y003658D02*
X007894Y003658D01*
X007894Y003660D02*
X008367Y003660D01*
X008367Y003663D02*
X007894Y003663D01*
X007894Y003665D02*
X008367Y003665D01*
X008367Y003668D02*
X007894Y003668D01*
X007894Y003670D02*
X008367Y003670D01*
X008367Y003673D02*
X007894Y003673D01*
X007894Y003675D02*
X008367Y003675D01*
X008367Y003677D02*
X007894Y003677D01*
X007894Y003680D02*
X008367Y003680D01*
X008367Y003682D02*
X007894Y003682D01*
X007894Y003685D02*
X008367Y003685D01*
X008367Y003687D02*
X007894Y003687D01*
X007894Y003690D02*
X008367Y003690D01*
X008367Y003692D02*
X007894Y003692D01*
X007894Y003695D02*
X008367Y003695D01*
X008367Y003697D02*
X007894Y003697D01*
X007894Y003699D02*
X008367Y003699D01*
X008367Y003702D02*
X007894Y003702D01*
X007894Y003704D02*
X008367Y003704D01*
X008367Y003707D02*
X007894Y003707D01*
X007894Y003709D02*
X008367Y003709D01*
X008367Y003712D02*
X007894Y003712D01*
X007894Y003714D02*
X008367Y003714D01*
X008367Y003716D02*
X007894Y003716D01*
X007894Y003719D02*
X008367Y003719D01*
X008367Y003721D02*
X007894Y003721D01*
X007894Y003724D02*
X008367Y003724D01*
X008367Y003726D02*
X007894Y003726D01*
X007894Y003729D02*
X008367Y003729D01*
X008367Y003731D02*
X007894Y003731D01*
X007894Y003733D02*
X008367Y003733D01*
X008367Y003736D02*
X007894Y003736D01*
X007894Y003738D02*
X008367Y003738D01*
X008367Y003741D02*
X007894Y003741D01*
X007894Y003743D02*
X008367Y003743D01*
X008367Y003746D02*
X007894Y003746D01*
X007894Y003748D02*
X008367Y003748D01*
X008367Y003751D02*
X007894Y003751D01*
X007894Y003753D02*
X008367Y003753D01*
X008367Y003755D02*
X007894Y003755D01*
X007894Y003758D02*
X008367Y003758D01*
X008367Y003760D02*
X007894Y003760D01*
X007894Y003763D02*
X008367Y003763D01*
X008367Y003765D02*
X007894Y003765D01*
X007894Y003768D02*
X008367Y003768D01*
X008367Y003770D02*
X007894Y003770D01*
X007894Y003772D02*
X008367Y003772D01*
X008367Y003775D02*
X007894Y003775D01*
X007894Y003777D02*
X008367Y003777D01*
X008367Y003780D02*
X007894Y003780D01*
X007894Y003782D02*
X008367Y003782D01*
X008367Y003785D02*
X007894Y003785D01*
X007894Y003787D02*
X008367Y003787D01*
X008367Y003790D02*
X007894Y003790D01*
X007894Y003792D02*
X008367Y003792D01*
X008367Y003794D02*
X007894Y003794D01*
X007894Y003797D02*
X008367Y003797D01*
X008367Y003799D02*
X007894Y003799D01*
X007894Y003802D02*
X008367Y003802D01*
X008367Y003804D02*
X007894Y003804D01*
X007894Y003807D02*
X008367Y003807D01*
X008367Y003809D02*
X007894Y003809D01*
X007894Y003811D02*
X008367Y003811D01*
X008367Y003814D02*
X007894Y003814D01*
X007894Y003816D02*
X008367Y003816D01*
X008367Y003819D02*
X007894Y003819D01*
X007894Y003821D02*
X008367Y003821D01*
X008367Y003824D02*
X007894Y003824D01*
X007894Y003826D02*
X008367Y003826D01*
X008367Y003829D02*
X007894Y003829D01*
X007894Y003831D02*
X008367Y003831D01*
X008367Y003833D02*
X007894Y003833D01*
X007894Y003836D02*
X008367Y003836D01*
X008367Y003838D02*
X007894Y003838D01*
X007894Y003841D02*
X008367Y003841D01*
X008367Y003843D02*
X007894Y003843D01*
X007894Y003846D02*
X008367Y003846D01*
X008367Y003848D02*
X007894Y003848D01*
X007894Y003850D02*
X008367Y003850D01*
X008367Y003853D02*
X007894Y003853D01*
X007894Y003855D02*
X008367Y003855D01*
X008367Y003858D02*
X007894Y003858D01*
X007894Y003860D02*
X008367Y003860D01*
X008367Y003863D02*
X007894Y003863D01*
X007894Y003865D02*
X008367Y003865D01*
X008367Y003868D02*
X007894Y003868D01*
X007894Y003870D02*
X008367Y003870D01*
X008367Y003872D02*
X007894Y003872D01*
X007894Y003875D02*
X008367Y003875D01*
X008367Y003877D02*
X007894Y003877D01*
X007894Y003880D02*
X008367Y003880D01*
X008367Y003882D02*
X007894Y003882D01*
X007894Y003885D02*
X008367Y003885D01*
X008367Y003887D02*
X007894Y003887D01*
X007894Y003889D02*
X008367Y003889D01*
X008367Y003892D02*
X007894Y003892D01*
X007894Y003894D02*
X008367Y003894D01*
X008367Y003897D02*
X007894Y003897D01*
X007894Y003899D02*
X008367Y003899D01*
X008367Y003902D02*
X007894Y003902D01*
X007894Y003904D02*
X008367Y003904D01*
X008367Y003907D02*
X007894Y003907D01*
X007894Y003909D02*
X008367Y003909D01*
X008367Y003911D02*
X007894Y003911D01*
X007894Y003914D02*
X008367Y003914D01*
X008367Y003916D02*
X007894Y003916D01*
X007894Y003919D02*
X008367Y003919D01*
X008367Y003921D02*
X007894Y003921D01*
X007894Y003924D02*
X008367Y003924D01*
X008367Y003926D02*
X007894Y003926D01*
X007894Y003928D02*
X008367Y003928D01*
X008367Y003931D02*
X007894Y003931D01*
X007894Y003933D02*
X008367Y003933D01*
X008367Y003936D02*
X007894Y003936D01*
X007894Y003938D02*
X008367Y003938D01*
X008367Y003941D02*
X007894Y003941D01*
X007894Y003943D02*
X008367Y003943D01*
X008367Y003946D02*
X007894Y003946D01*
X007894Y003948D02*
X008367Y003948D01*
X008367Y003950D02*
X007894Y003950D01*
X007894Y003953D02*
X008367Y003953D01*
X008367Y003955D02*
X007894Y003955D01*
X007894Y003958D02*
X008367Y003958D01*
X008367Y003960D02*
X007894Y003960D01*
X007894Y003963D02*
X008367Y003963D01*
X008367Y003965D02*
X007894Y003965D01*
X007894Y003967D02*
X008367Y003967D01*
X008367Y003970D02*
X007894Y003970D01*
X007894Y003972D02*
X008367Y003972D01*
X008367Y003975D02*
X007894Y003975D01*
X007894Y003977D02*
X008367Y003977D01*
X008367Y003980D02*
X007894Y003980D01*
X007894Y003982D02*
X008367Y003982D01*
X008367Y003985D02*
X007894Y003985D01*
X007894Y003987D02*
X008367Y003987D01*
X008367Y003989D02*
X007894Y003989D01*
X007894Y003992D02*
X008367Y003992D01*
X008367Y003993D02*
X008367Y003521D01*
X008359Y003471D01*
X008340Y003424D01*
X007921Y003424D01*
X007922Y003424D02*
X007903Y003471D01*
X007894Y003521D01*
X007894Y003993D01*
X007901Y004037D01*
X007915Y004079D01*
X007938Y004118D01*
X007967Y004151D01*
X008003Y004178D01*
X008043Y004198D01*
X008086Y004209D01*
X008131Y004212D01*
X008182Y004208D01*
X008230Y004193D01*
X008274Y004168D01*
X008312Y004133D01*
X008341Y004091D01*
X008359Y004043D01*
X007903Y004043D01*
X007903Y004045D02*
X008358Y004045D01*
X008359Y004043D02*
X008367Y003993D01*
X008367Y003994D02*
X007895Y003994D01*
X007895Y003997D02*
X008366Y003997D01*
X008366Y003999D02*
X007895Y003999D01*
X007896Y004002D02*
X008366Y004002D01*
X008365Y004004D02*
X007896Y004004D01*
X007896Y004006D02*
X008365Y004006D01*
X008365Y004009D02*
X007897Y004009D01*
X007897Y004011D02*
X008364Y004011D01*
X008364Y004014D02*
X007897Y004014D01*
X007898Y004016D02*
X008363Y004016D01*
X008363Y004019D02*
X007898Y004019D01*
X007898Y004021D02*
X008363Y004021D01*
X008362Y004024D02*
X007899Y004024D01*
X007899Y004026D02*
X008362Y004026D01*
X008362Y004028D02*
X007899Y004028D01*
X007900Y004031D02*
X008361Y004031D01*
X008361Y004033D02*
X007900Y004033D01*
X007900Y004036D02*
X008360Y004036D01*
X008360Y004038D02*
X007901Y004038D01*
X007902Y004041D02*
X008360Y004041D01*
X008358Y004048D02*
X007904Y004048D01*
X007905Y004050D02*
X008357Y004050D01*
X008356Y004053D02*
X007906Y004053D01*
X007907Y004055D02*
X008355Y004055D01*
X008354Y004058D02*
X007908Y004058D01*
X007908Y004060D02*
X008353Y004060D01*
X008352Y004063D02*
X007909Y004063D01*
X007910Y004065D02*
X008351Y004065D01*
X008350Y004067D02*
X007911Y004067D01*
X007912Y004070D02*
X008349Y004070D01*
X008348Y004072D02*
X007913Y004072D01*
X007914Y004075D02*
X008347Y004075D01*
X008346Y004077D02*
X007914Y004077D01*
X007915Y004080D02*
X008345Y004080D01*
X008344Y004082D02*
X007917Y004082D01*
X007918Y004084D02*
X008343Y004084D01*
X008342Y004087D02*
X007920Y004087D01*
X007921Y004089D02*
X008341Y004089D01*
X008340Y004092D02*
X007922Y004092D01*
X007924Y004094D02*
X008338Y004094D01*
X008337Y004097D02*
X007925Y004097D01*
X007927Y004099D02*
X008335Y004099D01*
X008333Y004102D02*
X007928Y004102D01*
X007930Y004104D02*
X008332Y004104D01*
X008330Y004106D02*
X007931Y004106D01*
X007932Y004109D02*
X008328Y004109D01*
X008327Y004111D02*
X007934Y004111D01*
X007935Y004114D02*
X008325Y004114D01*
X008323Y004116D02*
X007937Y004116D01*
X007938Y004119D02*
X008322Y004119D01*
X008320Y004121D02*
X007940Y004121D01*
X007943Y004123D02*
X008318Y004123D01*
X008317Y004126D02*
X007945Y004126D01*
X007947Y004128D02*
X008315Y004128D01*
X008313Y004131D02*
X007949Y004131D01*
X007951Y004133D02*
X008312Y004133D01*
X008309Y004136D02*
X007953Y004136D01*
X007956Y004138D02*
X008306Y004138D01*
X008304Y004141D02*
X007958Y004141D01*
X007960Y004143D02*
X008301Y004143D01*
X008298Y004145D02*
X007962Y004145D01*
X007964Y004148D02*
X008296Y004148D01*
X008293Y004150D02*
X007966Y004150D01*
X007969Y004153D02*
X008290Y004153D01*
X008288Y004155D02*
X007972Y004155D01*
X007976Y004158D02*
X008285Y004158D01*
X008283Y004160D02*
X007979Y004160D01*
X007982Y004162D02*
X008280Y004162D01*
X008277Y004165D02*
X007985Y004165D01*
X007989Y004167D02*
X008275Y004167D01*
X008271Y004170D02*
X007992Y004170D01*
X007995Y004172D02*
X008266Y004172D01*
X008262Y004175D02*
X007998Y004175D01*
X008001Y004177D02*
X008258Y004177D01*
X008254Y004180D02*
X008006Y004180D01*
X008011Y004182D02*
X008249Y004182D01*
X008245Y004184D02*
X008016Y004184D01*
X008021Y004187D02*
X008241Y004187D01*
X008237Y004189D02*
X008026Y004189D01*
X008031Y004192D02*
X008232Y004192D01*
X008226Y004194D02*
X008036Y004194D01*
X008041Y004197D02*
X008218Y004197D01*
X008210Y004199D02*
X008048Y004199D01*
X008057Y004201D02*
X008202Y004201D01*
X008195Y004204D02*
X008067Y004204D01*
X008076Y004206D02*
X008187Y004206D01*
X008170Y004209D02*
X008085Y004209D01*
X008124Y004211D02*
X008136Y004211D01*
X008367Y003548D02*
X007894Y003548D01*
X007894Y003546D02*
X008367Y003546D01*
X008367Y003543D02*
X007894Y003543D01*
X007894Y003541D02*
X008367Y003541D01*
X008367Y003539D02*
X007894Y003539D01*
X007894Y003536D02*
X008367Y003536D01*
X008367Y003534D02*
X007894Y003534D01*
X007894Y003531D02*
X008367Y003531D01*
X008367Y003529D02*
X007894Y003529D01*
X007894Y003526D02*
X008367Y003526D01*
X008367Y003524D02*
X007894Y003524D01*
X007894Y003521D02*
X008367Y003521D01*
X008367Y003519D02*
X007895Y003519D01*
X007895Y003517D02*
X008366Y003517D01*
X008366Y003514D02*
X007896Y003514D01*
X007896Y003512D02*
X008365Y003512D01*
X008365Y003509D02*
X007896Y003509D01*
X007897Y003507D02*
X008365Y003507D01*
X008364Y003504D02*
X007897Y003504D01*
X007898Y003502D02*
X008364Y003502D01*
X008364Y003500D02*
X007898Y003500D01*
X007898Y003497D02*
X008363Y003497D01*
X008363Y003495D02*
X007899Y003495D01*
X007899Y003492D02*
X008362Y003492D01*
X008362Y003490D02*
X007899Y003490D01*
X007900Y003487D02*
X008362Y003487D01*
X008361Y003485D02*
X007900Y003485D01*
X007901Y003482D02*
X008361Y003482D01*
X008360Y003480D02*
X007901Y003480D01*
X007901Y003478D02*
X008360Y003478D01*
X008360Y003475D02*
X007902Y003475D01*
X007902Y003473D02*
X008359Y003473D01*
X008359Y003470D02*
X007903Y003470D01*
X007904Y003468D02*
X008358Y003468D01*
X008357Y003465D02*
X007905Y003465D01*
X007906Y003463D02*
X008356Y003463D01*
X008355Y003461D02*
X007907Y003461D01*
X007908Y003458D02*
X008354Y003458D01*
X008353Y003456D02*
X007909Y003456D01*
X007910Y003453D02*
X008352Y003453D01*
X008351Y003451D02*
X007911Y003451D01*
X007912Y003448D02*
X008350Y003448D01*
X008349Y003446D02*
X007913Y003446D01*
X007914Y003443D02*
X008348Y003443D01*
X008347Y003441D02*
X007915Y003441D01*
X007916Y003439D02*
X008346Y003439D01*
X008345Y003436D02*
X007917Y003436D01*
X007918Y003434D02*
X008344Y003434D01*
X008343Y003431D02*
X007919Y003431D01*
X007920Y003429D02*
X008342Y003429D01*
X008341Y003426D02*
X007921Y003426D01*
X007922Y003424D02*
X007950Y003383D01*
X008311Y003383D01*
X008274Y003349D01*
X008230Y003324D01*
X008031Y003324D01*
X008032Y003324D02*
X007988Y003349D01*
X007950Y003383D01*
X007949Y003385D02*
X008313Y003385D01*
X008314Y003387D02*
X007947Y003387D01*
X007945Y003390D02*
X008316Y003390D01*
X008318Y003392D02*
X007944Y003392D01*
X007942Y003395D02*
X008320Y003395D01*
X008321Y003397D02*
X007940Y003397D01*
X007938Y003400D02*
X008323Y003400D01*
X008325Y003402D02*
X007937Y003402D01*
X007935Y003404D02*
X008326Y003404D01*
X008328Y003407D02*
X007933Y003407D01*
X007932Y003409D02*
X008330Y003409D01*
X008331Y003412D02*
X007930Y003412D01*
X007928Y003414D02*
X008333Y003414D01*
X008335Y003417D02*
X007927Y003417D01*
X007925Y003419D02*
X008337Y003419D01*
X008338Y003422D02*
X007923Y003422D01*
X007953Y003380D02*
X008308Y003380D01*
X008306Y003378D02*
X007956Y003378D01*
X007958Y003375D02*
X008303Y003375D01*
X008300Y003373D02*
X007961Y003373D01*
X007964Y003370D02*
X008298Y003370D01*
X008295Y003368D02*
X007966Y003368D01*
X007969Y003365D02*
X008292Y003365D01*
X008290Y003363D02*
X007972Y003363D01*
X007975Y003361D02*
X008287Y003361D01*
X008284Y003358D02*
X007977Y003358D01*
X007980Y003356D02*
X008282Y003356D01*
X008279Y003353D02*
X007983Y003353D01*
X007985Y003351D02*
X008276Y003351D01*
X008273Y003348D02*
X007988Y003348D01*
X007992Y003346D02*
X008269Y003346D01*
X008265Y003344D02*
X007997Y003344D01*
X008001Y003341D02*
X008260Y003341D01*
X008256Y003339D02*
X008005Y003339D01*
X008010Y003336D02*
X008252Y003336D01*
X008247Y003334D02*
X008014Y003334D01*
X008018Y003331D02*
X008243Y003331D01*
X008239Y003329D02*
X008023Y003329D01*
X008027Y003326D02*
X008234Y003326D01*
X008230Y003324D02*
X008181Y003309D01*
X008131Y003306D01*
X008080Y003309D01*
X008181Y003309D01*
X008190Y003312D02*
X008072Y003312D01*
X008064Y003314D02*
X008198Y003314D01*
X008206Y003317D02*
X008055Y003317D01*
X008047Y003319D02*
X008214Y003319D01*
X008222Y003322D02*
X008039Y003322D01*
X008032Y003324D02*
X008080Y003309D01*
X008117Y003307D02*
X008144Y003307D01*
X008311Y003383D02*
X008340Y003424D01*
X008177Y002463D02*
X008131Y002468D01*
X008078Y002461D01*
X008028Y002444D01*
X007983Y002415D01*
X007946Y002377D01*
X007918Y002332D01*
X007917Y002332D02*
X008343Y002332D01*
X008344Y002330D02*
X007917Y002330D01*
X007918Y002332D02*
X007900Y002282D01*
X007894Y002229D01*
X007894Y001993D01*
X007901Y001941D01*
X007918Y001891D01*
X007946Y001847D01*
X008314Y001847D01*
X008316Y001850D02*
X007945Y001850D01*
X007943Y001852D02*
X008318Y001852D01*
X008320Y001854D02*
X007942Y001854D01*
X007940Y001857D02*
X008322Y001857D01*
X008324Y001859D02*
X007938Y001859D01*
X007937Y001862D02*
X008326Y001862D01*
X008327Y001863D02*
X008297Y001827D01*
X008262Y001798D01*
X008002Y001798D01*
X008006Y001796D02*
X008258Y001796D01*
X008262Y001798D02*
X008221Y001776D01*
X008177Y001763D01*
X008131Y001759D01*
X008078Y001765D01*
X008029Y001782D01*
X007984Y001810D01*
X007946Y001847D01*
X007948Y001845D02*
X008312Y001845D01*
X008310Y001842D02*
X007951Y001842D01*
X007953Y001840D02*
X008308Y001840D01*
X008306Y001837D02*
X007956Y001837D01*
X007958Y001835D02*
X008304Y001835D01*
X008302Y001832D02*
X007961Y001832D01*
X007963Y001830D02*
X008300Y001830D01*
X008298Y001828D02*
X007966Y001828D01*
X007968Y001825D02*
X008295Y001825D01*
X008292Y001823D02*
X007971Y001823D01*
X007973Y001820D02*
X008289Y001820D01*
X008286Y001818D02*
X007976Y001818D01*
X007978Y001815D02*
X008283Y001815D01*
X008280Y001813D02*
X007980Y001813D01*
X007983Y001811D02*
X008277Y001811D01*
X008274Y001808D02*
X007986Y001808D01*
X007990Y001806D02*
X008271Y001806D01*
X008268Y001803D02*
X007994Y001803D01*
X007998Y001801D02*
X008265Y001801D01*
X008253Y001793D02*
X008010Y001793D01*
X008014Y001791D02*
X008248Y001791D01*
X008244Y001789D02*
X008018Y001789D01*
X008021Y001786D02*
X008239Y001786D01*
X008235Y001784D02*
X008025Y001784D01*
X008030Y001781D02*
X008230Y001781D01*
X008225Y001779D02*
X008037Y001779D01*
X008044Y001776D02*
X008221Y001776D01*
X008213Y001774D02*
X008051Y001774D01*
X008058Y001772D02*
X008204Y001772D01*
X008196Y001769D02*
X008065Y001769D01*
X008072Y001767D02*
X008188Y001767D01*
X008180Y001764D02*
X008081Y001764D01*
X008104Y001762D02*
X008162Y001762D01*
X008136Y001759D02*
X008126Y001759D01*
X007935Y001864D02*
X008328Y001864D01*
X008327Y001863D02*
X008349Y001903D01*
X008362Y001947D01*
X007900Y001947D01*
X007900Y001945D02*
X008361Y001945D01*
X008362Y001947D02*
X008367Y001993D01*
X008367Y002229D01*
X008363Y002276D01*
X008362Y002276D02*
X007900Y002276D01*
X007900Y002278D02*
X008362Y002278D01*
X008363Y002276D02*
X008349Y002320D01*
X008328Y002361D01*
X008298Y002397D01*
X008262Y002427D01*
X008002Y002427D01*
X008006Y002430D02*
X008258Y002430D01*
X008262Y002427D02*
X008221Y002449D01*
X008177Y002463D01*
X008182Y002461D02*
X008078Y002461D01*
X008071Y002459D02*
X008190Y002459D01*
X008198Y002456D02*
X008064Y002456D01*
X008057Y002454D02*
X008206Y002454D01*
X008214Y002452D02*
X008050Y002452D01*
X008043Y002449D02*
X008221Y002449D01*
X008226Y002447D02*
X008036Y002447D01*
X008030Y002444D02*
X008230Y002444D01*
X008235Y002442D02*
X008025Y002442D01*
X008021Y002439D02*
X008240Y002439D01*
X008244Y002437D02*
X008017Y002437D01*
X008013Y002434D02*
X008249Y002434D01*
X008253Y002432D02*
X008010Y002432D01*
X007998Y002425D02*
X008265Y002425D01*
X008268Y002422D02*
X007994Y002422D01*
X007990Y002420D02*
X008271Y002420D01*
X008274Y002417D02*
X007987Y002417D01*
X007983Y002415D02*
X008277Y002415D01*
X008280Y002413D02*
X007980Y002413D01*
X007978Y002410D02*
X008283Y002410D01*
X008286Y002408D02*
X007976Y002408D01*
X007973Y002405D02*
X008289Y002405D01*
X008292Y002403D02*
X007971Y002403D01*
X007968Y002400D02*
X008295Y002400D01*
X008298Y002398D02*
X007966Y002398D01*
X007963Y002395D02*
X008300Y002395D01*
X008302Y002393D02*
X007961Y002393D01*
X007959Y002391D02*
X008304Y002391D01*
X008306Y002388D02*
X007956Y002388D01*
X007954Y002386D02*
X008308Y002386D01*
X008310Y002383D02*
X007951Y002383D01*
X007949Y002381D02*
X008312Y002381D01*
X008314Y002378D02*
X007947Y002378D01*
X007945Y002376D02*
X008316Y002376D01*
X008318Y002374D02*
X007943Y002374D01*
X007942Y002371D02*
X008320Y002371D01*
X008322Y002369D02*
X007940Y002369D01*
X007939Y002366D02*
X008323Y002366D01*
X008325Y002364D02*
X007937Y002364D01*
X007936Y002361D02*
X008327Y002361D01*
X008329Y002359D02*
X007934Y002359D01*
X007933Y002356D02*
X008330Y002356D01*
X008331Y002354D02*
X007931Y002354D01*
X007930Y002352D02*
X008333Y002352D01*
X008334Y002349D02*
X007928Y002349D01*
X007926Y002347D02*
X008335Y002347D01*
X008337Y002344D02*
X007925Y002344D01*
X007923Y002342D02*
X008338Y002342D01*
X008339Y002339D02*
X007922Y002339D01*
X007920Y002337D02*
X008340Y002337D01*
X008342Y002335D02*
X007919Y002335D01*
X007916Y002327D02*
X008346Y002327D01*
X008347Y002325D02*
X007915Y002325D01*
X007914Y002322D02*
X008348Y002322D01*
X008349Y002320D02*
X007913Y002320D01*
X007912Y002317D02*
X008350Y002317D01*
X008351Y002315D02*
X007912Y002315D01*
X007911Y002313D02*
X008352Y002313D01*
X008352Y002310D02*
X007910Y002310D01*
X007909Y002308D02*
X008353Y002308D01*
X008354Y002305D02*
X007908Y002305D01*
X007907Y002303D02*
X008354Y002303D01*
X008355Y002300D02*
X007907Y002300D01*
X007906Y002298D02*
X008356Y002298D01*
X008357Y002296D02*
X007905Y002296D01*
X007904Y002293D02*
X008357Y002293D01*
X008358Y002291D02*
X007903Y002291D01*
X007902Y002288D02*
X008359Y002288D01*
X008360Y002286D02*
X007901Y002286D01*
X007901Y002283D02*
X008360Y002283D01*
X008361Y002281D02*
X007900Y002281D01*
X007899Y002274D02*
X008363Y002274D01*
X008363Y002271D02*
X007899Y002271D01*
X007899Y002269D02*
X008363Y002269D01*
X008363Y002266D02*
X007898Y002266D01*
X007898Y002264D02*
X008364Y002264D01*
X008364Y002261D02*
X007898Y002261D01*
X007898Y002259D02*
X008364Y002259D01*
X008364Y002257D02*
X007897Y002257D01*
X007897Y002254D02*
X008365Y002254D01*
X008365Y002252D02*
X007897Y002252D01*
X007897Y002249D02*
X008365Y002249D01*
X008365Y002247D02*
X007896Y002247D01*
X007896Y002244D02*
X008366Y002244D01*
X008366Y002242D02*
X007896Y002242D01*
X007896Y002239D02*
X008366Y002239D01*
X008366Y002237D02*
X007895Y002237D01*
X007895Y002235D02*
X008366Y002235D01*
X008367Y002232D02*
X007895Y002232D01*
X007895Y002230D02*
X008367Y002230D01*
X008367Y002227D02*
X007894Y002227D01*
X007894Y002225D02*
X008367Y002225D01*
X008367Y002222D02*
X007894Y002222D01*
X007894Y002220D02*
X008367Y002220D01*
X008367Y002218D02*
X007894Y002218D01*
X007894Y002215D02*
X008367Y002215D01*
X008367Y002213D02*
X007894Y002213D01*
X007894Y002210D02*
X008367Y002210D01*
X008367Y002208D02*
X007894Y002208D01*
X007894Y002205D02*
X008367Y002205D01*
X008367Y002203D02*
X007894Y002203D01*
X007894Y002200D02*
X008367Y002200D01*
X008367Y002198D02*
X007894Y002198D01*
X007894Y002196D02*
X008367Y002196D01*
X008367Y002193D02*
X007894Y002193D01*
X007894Y002191D02*
X008367Y002191D01*
X008367Y002188D02*
X007894Y002188D01*
X007894Y002186D02*
X008367Y002186D01*
X008367Y002183D02*
X007894Y002183D01*
X007894Y002181D02*
X008367Y002181D01*
X008367Y002179D02*
X007894Y002179D01*
X007894Y002176D02*
X008367Y002176D01*
X008367Y002174D02*
X007894Y002174D01*
X007894Y002171D02*
X008367Y002171D01*
X008367Y002169D02*
X007894Y002169D01*
X007894Y002166D02*
X008367Y002166D01*
X008367Y002164D02*
X007894Y002164D01*
X007894Y002161D02*
X008367Y002161D01*
X008367Y002159D02*
X007894Y002159D01*
X007894Y002157D02*
X008367Y002157D01*
X008367Y002154D02*
X007894Y002154D01*
X007894Y002152D02*
X008367Y002152D01*
X008367Y002149D02*
X007894Y002149D01*
X007894Y002147D02*
X008367Y002147D01*
X008367Y002144D02*
X007894Y002144D01*
X007894Y002142D02*
X008367Y002142D01*
X008367Y002140D02*
X007894Y002140D01*
X007894Y002137D02*
X008367Y002137D01*
X008367Y002135D02*
X007894Y002135D01*
X007894Y002132D02*
X008367Y002132D01*
X008367Y002130D02*
X007894Y002130D01*
X007894Y002127D02*
X008367Y002127D01*
X008367Y002125D02*
X007894Y002125D01*
X007894Y002122D02*
X008367Y002122D01*
X008367Y002120D02*
X007894Y002120D01*
X007894Y002118D02*
X008367Y002118D01*
X008367Y002115D02*
X007894Y002115D01*
X007894Y002113D02*
X008367Y002113D01*
X008367Y002110D02*
X007894Y002110D01*
X007894Y002108D02*
X008367Y002108D01*
X008367Y002105D02*
X007894Y002105D01*
X007894Y002103D02*
X008367Y002103D01*
X008367Y002101D02*
X007894Y002101D01*
X007894Y002098D02*
X008367Y002098D01*
X008367Y002096D02*
X007894Y002096D01*
X007894Y002093D02*
X008367Y002093D01*
X008367Y002091D02*
X007894Y002091D01*
X007894Y002088D02*
X008367Y002088D01*
X008367Y002086D02*
X007894Y002086D01*
X007894Y002083D02*
X008367Y002083D01*
X008367Y002081D02*
X007894Y002081D01*
X007894Y002079D02*
X008367Y002079D01*
X008367Y002076D02*
X007894Y002076D01*
X007894Y002074D02*
X008367Y002074D01*
X008367Y002071D02*
X007894Y002071D01*
X007894Y002069D02*
X008367Y002069D01*
X008367Y002066D02*
X007894Y002066D01*
X007894Y002064D02*
X008367Y002064D01*
X008367Y002062D02*
X007894Y002062D01*
X007894Y002059D02*
X008367Y002059D01*
X008367Y002057D02*
X007894Y002057D01*
X007894Y002054D02*
X008367Y002054D01*
X008367Y002052D02*
X007894Y002052D01*
X007894Y002049D02*
X008367Y002049D01*
X008367Y002047D02*
X007894Y002047D01*
X007894Y002044D02*
X008367Y002044D01*
X008367Y002042D02*
X007894Y002042D01*
X007894Y002040D02*
X008367Y002040D01*
X008367Y002037D02*
X007894Y002037D01*
X007894Y002035D02*
X008367Y002035D01*
X008367Y002032D02*
X007894Y002032D01*
X007894Y002030D02*
X008367Y002030D01*
X008367Y002027D02*
X007894Y002027D01*
X007894Y002025D02*
X008367Y002025D01*
X008367Y002023D02*
X007894Y002023D01*
X007894Y002020D02*
X008367Y002020D01*
X008367Y002018D02*
X007894Y002018D01*
X007894Y002015D02*
X008367Y002015D01*
X008367Y002013D02*
X007894Y002013D01*
X007894Y002010D02*
X008367Y002010D01*
X008367Y002008D02*
X007894Y002008D01*
X007894Y002005D02*
X008367Y002005D01*
X008367Y002003D02*
X007894Y002003D01*
X007894Y002001D02*
X008367Y002001D01*
X008367Y001998D02*
X007894Y001998D01*
X007894Y001996D02*
X008367Y001996D01*
X008367Y001993D02*
X007894Y001993D01*
X007895Y001991D02*
X008367Y001991D01*
X008366Y001988D02*
X007895Y001988D01*
X007895Y001986D02*
X008366Y001986D01*
X008366Y001984D02*
X007896Y001984D01*
X007896Y001981D02*
X008366Y001981D01*
X008365Y001979D02*
X007896Y001979D01*
X007896Y001976D02*
X008365Y001976D01*
X008365Y001974D02*
X007897Y001974D01*
X007897Y001971D02*
X008365Y001971D01*
X008364Y001969D02*
X007897Y001969D01*
X007898Y001966D02*
X008364Y001966D01*
X008364Y001964D02*
X007898Y001964D01*
X007898Y001962D02*
X008364Y001962D01*
X008363Y001959D02*
X007898Y001959D01*
X007899Y001957D02*
X008363Y001957D01*
X008363Y001954D02*
X007899Y001954D01*
X007899Y001952D02*
X008363Y001952D01*
X008362Y001949D02*
X007900Y001949D01*
X007900Y001942D02*
X008361Y001942D01*
X008360Y001940D02*
X007901Y001940D01*
X007902Y001937D02*
X008359Y001937D01*
X008358Y001935D02*
X007903Y001935D01*
X007904Y001932D02*
X008358Y001932D01*
X008357Y001930D02*
X007904Y001930D01*
X007905Y001927D02*
X008356Y001927D01*
X008355Y001925D02*
X007906Y001925D01*
X007907Y001923D02*
X008355Y001923D01*
X008354Y001920D02*
X007908Y001920D01*
X007909Y001918D02*
X008353Y001918D01*
X008352Y001915D02*
X007910Y001915D01*
X007911Y001913D02*
X008352Y001913D01*
X008351Y001910D02*
X007911Y001910D01*
X007912Y001908D02*
X008350Y001908D01*
X008349Y001906D02*
X007913Y001906D01*
X007914Y001903D02*
X008349Y001903D01*
X008347Y001901D02*
X007915Y001901D01*
X007916Y001898D02*
X008346Y001898D01*
X008345Y001896D02*
X007917Y001896D01*
X007917Y001893D02*
X008343Y001893D01*
X008342Y001891D02*
X007918Y001891D01*
X007920Y001888D02*
X008341Y001888D01*
X008339Y001886D02*
X007921Y001886D01*
X007923Y001884D02*
X008338Y001884D01*
X008337Y001881D02*
X007925Y001881D01*
X007926Y001879D02*
X008335Y001879D01*
X008334Y001876D02*
X007928Y001876D01*
X007929Y001874D02*
X008333Y001874D01*
X008332Y001871D02*
X007931Y001871D01*
X007932Y001869D02*
X008330Y001869D01*
X008329Y001867D02*
X007934Y001867D01*
X008098Y002464D02*
X008168Y002464D01*
X008144Y002466D02*
X008119Y002466D01*
X011296Y002229D02*
X011296Y001993D01*
X011302Y001941D01*
X011320Y001891D01*
X011744Y001891D01*
X011745Y001893D02*
X011319Y001893D01*
X011320Y001891D02*
X011348Y001847D01*
X011715Y001847D01*
X011713Y001845D02*
X011350Y001845D01*
X011348Y001847D02*
X011385Y001810D01*
X011430Y001782D01*
X011480Y001765D01*
X011532Y001759D01*
X011578Y001763D01*
X011622Y001776D01*
X011446Y001776D01*
X011453Y001774D02*
X011614Y001774D01*
X011606Y001772D02*
X011460Y001772D01*
X011467Y001769D02*
X011598Y001769D01*
X011590Y001767D02*
X011474Y001767D01*
X011483Y001764D02*
X011582Y001764D01*
X011563Y001762D02*
X011506Y001762D01*
X011528Y001759D02*
X011537Y001759D01*
X011622Y001776D02*
X011663Y001798D01*
X011699Y001827D01*
X011728Y001863D01*
X011750Y001903D01*
X011316Y001903D01*
X011316Y001901D02*
X011749Y001901D01*
X011750Y001903D02*
X011764Y001947D01*
X011301Y001947D01*
X011301Y001949D02*
X011764Y001949D01*
X011764Y001947D02*
X011769Y001993D01*
X011769Y002229D01*
X011764Y002276D01*
X011301Y002276D01*
X011301Y002274D02*
X011764Y002274D01*
X011764Y002276D02*
X011751Y002320D01*
X011315Y002320D01*
X011316Y002322D02*
X011750Y002322D01*
X011751Y002320D02*
X011729Y002361D01*
X011700Y002397D01*
X011664Y002427D01*
X011623Y002449D01*
X011445Y002449D01*
X011452Y002452D02*
X011615Y002452D01*
X011607Y002454D02*
X011459Y002454D01*
X011465Y002456D02*
X011599Y002456D01*
X011591Y002459D02*
X011472Y002459D01*
X011479Y002461D02*
X011583Y002461D01*
X011579Y002463D02*
X011623Y002449D01*
X011628Y002447D02*
X011438Y002447D01*
X011431Y002444D02*
X011632Y002444D01*
X011637Y002442D02*
X011427Y002442D01*
X011429Y002444D02*
X011480Y002461D01*
X011532Y002468D01*
X011579Y002463D01*
X011570Y002464D02*
X011500Y002464D01*
X011520Y002466D02*
X011546Y002466D01*
X011641Y002439D02*
X011423Y002439D01*
X011419Y002437D02*
X011646Y002437D01*
X011650Y002434D02*
X011415Y002434D01*
X011411Y002432D02*
X011655Y002432D01*
X011659Y002430D02*
X011407Y002430D01*
X011403Y002427D02*
X011664Y002427D01*
X011667Y002425D02*
X011400Y002425D01*
X011396Y002422D02*
X011670Y002422D01*
X011673Y002420D02*
X011392Y002420D01*
X011388Y002417D02*
X011676Y002417D01*
X011678Y002415D02*
X011384Y002415D01*
X011385Y002415D02*
X011429Y002444D01*
X011385Y002415D02*
X011347Y002377D01*
X011319Y002332D01*
X011745Y002332D01*
X011746Y002330D02*
X011318Y002330D01*
X011319Y002332D02*
X011302Y002282D01*
X011296Y002229D01*
X011296Y002230D02*
X011768Y002230D01*
X011768Y002232D02*
X011296Y002232D01*
X011297Y002235D02*
X011768Y002235D01*
X011768Y002237D02*
X011297Y002237D01*
X011297Y002239D02*
X011768Y002239D01*
X011767Y002242D02*
X011297Y002242D01*
X011298Y002244D02*
X011767Y002244D01*
X011767Y002247D02*
X011298Y002247D01*
X011298Y002249D02*
X011767Y002249D01*
X011766Y002252D02*
X011298Y002252D01*
X011299Y002254D02*
X011766Y002254D01*
X011766Y002257D02*
X011299Y002257D01*
X011299Y002259D02*
X011766Y002259D01*
X011765Y002261D02*
X011300Y002261D01*
X011300Y002264D02*
X011765Y002264D01*
X011765Y002266D02*
X011300Y002266D01*
X011300Y002269D02*
X011765Y002269D01*
X011765Y002271D02*
X011301Y002271D01*
X011301Y002278D02*
X011763Y002278D01*
X011763Y002281D02*
X011302Y002281D01*
X011302Y002283D02*
X011762Y002283D01*
X011761Y002286D02*
X011303Y002286D01*
X011304Y002288D02*
X011760Y002288D01*
X011760Y002291D02*
X011305Y002291D01*
X011306Y002293D02*
X011759Y002293D01*
X011758Y002296D02*
X011306Y002296D01*
X011307Y002298D02*
X011757Y002298D01*
X011757Y002300D02*
X011308Y002300D01*
X011309Y002303D02*
X011756Y002303D01*
X011755Y002305D02*
X011310Y002305D01*
X011311Y002308D02*
X011755Y002308D01*
X011754Y002310D02*
X011311Y002310D01*
X011312Y002313D02*
X011753Y002313D01*
X011752Y002315D02*
X011313Y002315D01*
X011314Y002317D02*
X011752Y002317D01*
X011748Y002325D02*
X011317Y002325D01*
X011317Y002327D02*
X011747Y002327D01*
X011743Y002335D02*
X011320Y002335D01*
X011322Y002337D02*
X011742Y002337D01*
X011741Y002339D02*
X011324Y002339D01*
X011325Y002342D02*
X011739Y002342D01*
X011738Y002344D02*
X011327Y002344D01*
X011328Y002347D02*
X011737Y002347D01*
X011735Y002349D02*
X011330Y002349D01*
X011331Y002352D02*
X011734Y002352D01*
X011733Y002354D02*
X011333Y002354D01*
X011334Y002356D02*
X011732Y002356D01*
X011730Y002359D02*
X011336Y002359D01*
X011337Y002361D02*
X011729Y002361D01*
X011727Y002364D02*
X011339Y002364D01*
X011340Y002366D02*
X011725Y002366D01*
X011723Y002369D02*
X011342Y002369D01*
X011343Y002371D02*
X011721Y002371D01*
X011719Y002374D02*
X011345Y002374D01*
X011346Y002376D02*
X011717Y002376D01*
X011715Y002378D02*
X011348Y002378D01*
X011351Y002381D02*
X011713Y002381D01*
X011711Y002383D02*
X011353Y002383D01*
X011355Y002386D02*
X011709Y002386D01*
X011707Y002388D02*
X011358Y002388D01*
X011360Y002391D02*
X011705Y002391D01*
X011703Y002393D02*
X011363Y002393D01*
X011365Y002395D02*
X011701Y002395D01*
X011699Y002398D02*
X011367Y002398D01*
X011370Y002400D02*
X011696Y002400D01*
X011693Y002403D02*
X011372Y002403D01*
X011375Y002405D02*
X011690Y002405D01*
X011687Y002408D02*
X011377Y002408D01*
X011380Y002410D02*
X011684Y002410D01*
X011681Y002413D02*
X011382Y002413D01*
X011296Y002227D02*
X011769Y002227D01*
X011769Y002225D02*
X011296Y002225D01*
X011296Y002222D02*
X011769Y002222D01*
X011769Y002220D02*
X011296Y002220D01*
X011296Y002218D02*
X011769Y002218D01*
X011769Y002215D02*
X011296Y002215D01*
X011296Y002213D02*
X011769Y002213D01*
X011769Y002210D02*
X011296Y002210D01*
X011296Y002208D02*
X011769Y002208D01*
X011769Y002205D02*
X011296Y002205D01*
X011296Y002203D02*
X011769Y002203D01*
X011769Y002200D02*
X011296Y002200D01*
X011296Y002198D02*
X011769Y002198D01*
X011769Y002196D02*
X011296Y002196D01*
X011296Y002193D02*
X011769Y002193D01*
X011769Y002191D02*
X011296Y002191D01*
X011296Y002188D02*
X011769Y002188D01*
X011769Y002186D02*
X011296Y002186D01*
X011296Y002183D02*
X011769Y002183D01*
X011769Y002181D02*
X011296Y002181D01*
X011296Y002179D02*
X011769Y002179D01*
X011769Y002176D02*
X011296Y002176D01*
X011296Y002174D02*
X011769Y002174D01*
X011769Y002171D02*
X011296Y002171D01*
X011296Y002169D02*
X011769Y002169D01*
X011769Y002166D02*
X011296Y002166D01*
X011296Y002164D02*
X011769Y002164D01*
X011769Y002161D02*
X011296Y002161D01*
X011296Y002159D02*
X011769Y002159D01*
X011769Y002157D02*
X011296Y002157D01*
X011296Y002154D02*
X011769Y002154D01*
X011769Y002152D02*
X011296Y002152D01*
X011296Y002149D02*
X011769Y002149D01*
X011769Y002147D02*
X011296Y002147D01*
X011296Y002144D02*
X011769Y002144D01*
X011769Y002142D02*
X011296Y002142D01*
X011296Y002140D02*
X011769Y002140D01*
X011769Y002137D02*
X011296Y002137D01*
X011296Y002135D02*
X011769Y002135D01*
X011769Y002132D02*
X011296Y002132D01*
X011296Y002130D02*
X011769Y002130D01*
X011769Y002127D02*
X011296Y002127D01*
X011296Y002125D02*
X011769Y002125D01*
X011769Y002122D02*
X011296Y002122D01*
X011296Y002120D02*
X011769Y002120D01*
X011769Y002118D02*
X011296Y002118D01*
X011296Y002115D02*
X011769Y002115D01*
X011769Y002113D02*
X011296Y002113D01*
X011296Y002110D02*
X011769Y002110D01*
X011769Y002108D02*
X011296Y002108D01*
X011296Y002105D02*
X011769Y002105D01*
X011769Y002103D02*
X011296Y002103D01*
X011296Y002101D02*
X011769Y002101D01*
X011769Y002098D02*
X011296Y002098D01*
X011296Y002096D02*
X011769Y002096D01*
X011769Y002093D02*
X011296Y002093D01*
X011296Y002091D02*
X011769Y002091D01*
X011769Y002088D02*
X011296Y002088D01*
X011296Y002086D02*
X011769Y002086D01*
X011769Y002083D02*
X011296Y002083D01*
X011296Y002081D02*
X011769Y002081D01*
X011769Y002079D02*
X011296Y002079D01*
X011296Y002076D02*
X011769Y002076D01*
X011769Y002074D02*
X011296Y002074D01*
X011296Y002071D02*
X011769Y002071D01*
X011769Y002069D02*
X011296Y002069D01*
X011296Y002066D02*
X011769Y002066D01*
X011769Y002064D02*
X011296Y002064D01*
X011296Y002062D02*
X011769Y002062D01*
X011769Y002059D02*
X011296Y002059D01*
X011296Y002057D02*
X011769Y002057D01*
X011769Y002054D02*
X011296Y002054D01*
X011296Y002052D02*
X011769Y002052D01*
X011769Y002049D02*
X011296Y002049D01*
X011296Y002047D02*
X011769Y002047D01*
X011769Y002044D02*
X011296Y002044D01*
X011296Y002042D02*
X011769Y002042D01*
X011769Y002040D02*
X011296Y002040D01*
X011296Y002037D02*
X011769Y002037D01*
X011769Y002035D02*
X011296Y002035D01*
X011296Y002032D02*
X011769Y002032D01*
X011769Y002030D02*
X011296Y002030D01*
X011296Y002027D02*
X011769Y002027D01*
X011769Y002025D02*
X011296Y002025D01*
X011296Y002023D02*
X011769Y002023D01*
X011769Y002020D02*
X011296Y002020D01*
X011296Y002018D02*
X011769Y002018D01*
X011769Y002015D02*
X011296Y002015D01*
X011296Y002013D02*
X011769Y002013D01*
X011769Y002010D02*
X011296Y002010D01*
X011296Y002008D02*
X011769Y002008D01*
X011769Y002005D02*
X011296Y002005D01*
X011296Y002003D02*
X011769Y002003D01*
X011769Y002001D02*
X011296Y002001D01*
X011296Y001998D02*
X011769Y001998D01*
X011769Y001996D02*
X011296Y001996D01*
X011296Y001993D02*
X011769Y001993D01*
X011768Y001991D02*
X011296Y001991D01*
X011297Y001988D02*
X011768Y001988D01*
X011768Y001986D02*
X011297Y001986D01*
X011297Y001984D02*
X011768Y001984D01*
X011767Y001981D02*
X011297Y001981D01*
X011298Y001979D02*
X011767Y001979D01*
X011767Y001976D02*
X011298Y001976D01*
X011298Y001974D02*
X011767Y001974D01*
X011766Y001971D02*
X011299Y001971D01*
X011299Y001969D02*
X011766Y001969D01*
X011766Y001966D02*
X011299Y001966D01*
X011299Y001964D02*
X011766Y001964D01*
X011765Y001962D02*
X011300Y001962D01*
X011300Y001959D02*
X011765Y001959D01*
X011765Y001957D02*
X011300Y001957D01*
X011301Y001954D02*
X011765Y001954D01*
X011764Y001952D02*
X011301Y001952D01*
X011302Y001945D02*
X011763Y001945D01*
X011762Y001942D02*
X011302Y001942D01*
X011303Y001940D02*
X011761Y001940D01*
X011761Y001937D02*
X011303Y001937D01*
X011304Y001935D02*
X011760Y001935D01*
X011759Y001932D02*
X011305Y001932D01*
X011306Y001930D02*
X011758Y001930D01*
X011758Y001927D02*
X011307Y001927D01*
X011308Y001925D02*
X011757Y001925D01*
X011756Y001923D02*
X011309Y001923D01*
X011309Y001920D02*
X011755Y001920D01*
X011755Y001918D02*
X011310Y001918D01*
X011311Y001915D02*
X011754Y001915D01*
X011753Y001913D02*
X011312Y001913D01*
X011313Y001910D02*
X011752Y001910D01*
X011752Y001908D02*
X011314Y001908D01*
X011315Y001906D02*
X011751Y001906D01*
X011748Y001898D02*
X011317Y001898D01*
X011318Y001896D02*
X011746Y001896D01*
X011742Y001888D02*
X011321Y001888D01*
X011323Y001886D02*
X011741Y001886D01*
X011740Y001884D02*
X011325Y001884D01*
X011326Y001881D02*
X011738Y001881D01*
X011737Y001879D02*
X011328Y001879D01*
X011329Y001876D02*
X011736Y001876D01*
X011734Y001874D02*
X011331Y001874D01*
X011332Y001871D02*
X011733Y001871D01*
X011732Y001869D02*
X011334Y001869D01*
X011335Y001867D02*
X011730Y001867D01*
X011729Y001864D02*
X011337Y001864D01*
X011338Y001862D02*
X011728Y001862D01*
X011726Y001859D02*
X011340Y001859D01*
X011342Y001857D02*
X011724Y001857D01*
X011722Y001854D02*
X011343Y001854D01*
X011345Y001852D02*
X011720Y001852D01*
X011717Y001850D02*
X011346Y001850D01*
X011353Y001842D02*
X011711Y001842D01*
X011709Y001840D02*
X011355Y001840D01*
X011357Y001837D02*
X011707Y001837D01*
X011705Y001835D02*
X011360Y001835D01*
X011362Y001832D02*
X011703Y001832D01*
X011701Y001830D02*
X011365Y001830D01*
X011367Y001828D02*
X011699Y001828D01*
X011697Y001825D02*
X011370Y001825D01*
X011372Y001823D02*
X011694Y001823D01*
X011691Y001820D02*
X011375Y001820D01*
X011377Y001818D02*
X011688Y001818D01*
X011685Y001815D02*
X011380Y001815D01*
X011382Y001813D02*
X011682Y001813D01*
X011679Y001811D02*
X011384Y001811D01*
X011388Y001808D02*
X011676Y001808D01*
X011673Y001806D02*
X011392Y001806D01*
X011396Y001803D02*
X011670Y001803D01*
X011667Y001801D02*
X011400Y001801D01*
X011403Y001798D02*
X011664Y001798D01*
X011659Y001796D02*
X011407Y001796D01*
X011411Y001793D02*
X011655Y001793D01*
X011650Y001791D02*
X011415Y001791D01*
X011419Y001789D02*
X011645Y001789D01*
X011641Y001786D02*
X011423Y001786D01*
X011427Y001784D02*
X011636Y001784D01*
X011632Y001781D02*
X011431Y001781D01*
X011439Y001779D02*
X011627Y001779D01*
X011532Y003306D02*
X011482Y003309D01*
X011433Y003324D01*
X011632Y003324D01*
X011631Y003324D02*
X011583Y003309D01*
X011482Y003309D01*
X011473Y003312D02*
X011591Y003312D01*
X011599Y003314D02*
X011465Y003314D01*
X011457Y003317D02*
X011608Y003317D01*
X011616Y003319D02*
X011449Y003319D01*
X011441Y003322D02*
X011624Y003322D01*
X011631Y003324D02*
X011675Y003349D01*
X011713Y003383D01*
X011352Y003383D01*
X011323Y003424D01*
X011741Y003424D01*
X011713Y003383D01*
X011714Y003385D02*
X011350Y003385D01*
X011349Y003387D02*
X011716Y003387D01*
X011718Y003390D02*
X011347Y003390D01*
X011345Y003392D02*
X011719Y003392D01*
X011721Y003395D02*
X011343Y003395D01*
X011342Y003397D02*
X011723Y003397D01*
X011725Y003400D02*
X011340Y003400D01*
X011338Y003402D02*
X011726Y003402D01*
X011728Y003404D02*
X011337Y003404D01*
X011335Y003407D02*
X011730Y003407D01*
X011731Y003409D02*
X011333Y003409D01*
X011332Y003412D02*
X011733Y003412D01*
X011735Y003414D02*
X011330Y003414D01*
X011328Y003417D02*
X011736Y003417D01*
X011738Y003419D02*
X011326Y003419D01*
X011325Y003422D02*
X011740Y003422D01*
X011741Y003424D02*
X011760Y003471D01*
X011769Y003521D01*
X011769Y003993D01*
X011761Y004043D01*
X011304Y004043D01*
X011303Y004041D02*
X011761Y004041D01*
X011761Y004043D02*
X011742Y004091D01*
X011713Y004133D01*
X011353Y004133D01*
X011351Y004131D02*
X011715Y004131D01*
X011713Y004133D02*
X011676Y004168D01*
X011632Y004193D01*
X011583Y004208D01*
X011532Y004212D01*
X011488Y004209D01*
X011445Y004198D01*
X011404Y004178D01*
X011369Y004151D01*
X011339Y004118D01*
X011317Y004079D01*
X011302Y004037D01*
X011296Y003993D01*
X011296Y003521D01*
X011304Y003471D01*
X011323Y003424D01*
X011322Y003426D02*
X011742Y003426D01*
X011743Y003429D02*
X011321Y003429D01*
X011320Y003431D02*
X011744Y003431D01*
X011745Y003434D02*
X011319Y003434D01*
X011318Y003436D02*
X011746Y003436D01*
X011747Y003439D02*
X011317Y003439D01*
X011316Y003441D02*
X011748Y003441D01*
X011749Y003443D02*
X011315Y003443D01*
X011314Y003446D02*
X011750Y003446D01*
X011751Y003448D02*
X011313Y003448D01*
X011312Y003451D02*
X011752Y003451D01*
X011753Y003453D02*
X011311Y003453D01*
X011310Y003456D02*
X011754Y003456D01*
X011755Y003458D02*
X011309Y003458D01*
X011308Y003461D02*
X011756Y003461D01*
X011757Y003463D02*
X011307Y003463D01*
X011306Y003465D02*
X011758Y003465D01*
X011759Y003468D02*
X011305Y003468D01*
X011304Y003470D02*
X011760Y003470D01*
X011761Y003473D02*
X011304Y003473D01*
X011303Y003475D02*
X011761Y003475D01*
X011762Y003478D02*
X011303Y003478D01*
X011303Y003480D02*
X011762Y003480D01*
X011762Y003482D02*
X011302Y003482D01*
X011302Y003485D02*
X011763Y003485D01*
X011763Y003487D02*
X011301Y003487D01*
X011301Y003490D02*
X011764Y003490D01*
X011764Y003492D02*
X011301Y003492D01*
X011300Y003495D02*
X011764Y003495D01*
X011765Y003497D02*
X011300Y003497D01*
X011299Y003500D02*
X011765Y003500D01*
X011765Y003502D02*
X011299Y003502D01*
X011299Y003504D02*
X011766Y003504D01*
X011766Y003507D02*
X011298Y003507D01*
X011298Y003509D02*
X011767Y003509D01*
X011767Y003512D02*
X011298Y003512D01*
X011297Y003514D02*
X011767Y003514D01*
X011768Y003517D02*
X011297Y003517D01*
X011296Y003519D02*
X011768Y003519D01*
X011769Y003521D02*
X011296Y003521D01*
X011296Y003524D02*
X011769Y003524D01*
X011769Y003526D02*
X011296Y003526D01*
X011296Y003529D02*
X011769Y003529D01*
X011769Y003531D02*
X011296Y003531D01*
X011296Y003534D02*
X011769Y003534D01*
X011769Y003536D02*
X011296Y003536D01*
X011296Y003539D02*
X011769Y003539D01*
X011769Y003541D02*
X011296Y003541D01*
X011296Y003543D02*
X011769Y003543D01*
X011769Y003546D02*
X011296Y003546D01*
X011296Y003548D02*
X011769Y003548D01*
X011769Y003551D02*
X011296Y003551D01*
X011296Y003553D02*
X011769Y003553D01*
X011769Y003556D02*
X011296Y003556D01*
X011296Y003558D02*
X011769Y003558D01*
X011769Y003560D02*
X011296Y003560D01*
X011296Y003563D02*
X011769Y003563D01*
X011769Y003565D02*
X011296Y003565D01*
X011296Y003568D02*
X011769Y003568D01*
X011769Y003570D02*
X011296Y003570D01*
X011296Y003573D02*
X011769Y003573D01*
X011769Y003575D02*
X011296Y003575D01*
X011296Y003578D02*
X011769Y003578D01*
X011769Y003580D02*
X011296Y003580D01*
X011296Y003582D02*
X011769Y003582D01*
X011769Y003585D02*
X011296Y003585D01*
X011296Y003587D02*
X011769Y003587D01*
X011769Y003590D02*
X011296Y003590D01*
X011296Y003592D02*
X011769Y003592D01*
X011769Y003595D02*
X011296Y003595D01*
X011296Y003597D02*
X011769Y003597D01*
X011769Y003599D02*
X011296Y003599D01*
X011296Y003602D02*
X011769Y003602D01*
X011769Y003604D02*
X011296Y003604D01*
X011296Y003607D02*
X011769Y003607D01*
X011769Y003609D02*
X011296Y003609D01*
X011296Y003612D02*
X011769Y003612D01*
X011769Y003614D02*
X011296Y003614D01*
X011296Y003617D02*
X011769Y003617D01*
X011769Y003619D02*
X011296Y003619D01*
X011296Y003621D02*
X011769Y003621D01*
X011769Y003624D02*
X011296Y003624D01*
X011296Y003626D02*
X011769Y003626D01*
X011769Y003629D02*
X011296Y003629D01*
X011296Y003631D02*
X011769Y003631D01*
X011769Y003634D02*
X011296Y003634D01*
X011296Y003636D02*
X011769Y003636D01*
X011769Y003638D02*
X011296Y003638D01*
X011296Y003641D02*
X011769Y003641D01*
X011769Y003643D02*
X011296Y003643D01*
X011296Y003646D02*
X011769Y003646D01*
X011769Y003648D02*
X011296Y003648D01*
X011296Y003651D02*
X011769Y003651D01*
X011769Y003653D02*
X011296Y003653D01*
X011296Y003656D02*
X011769Y003656D01*
X011769Y003658D02*
X011296Y003658D01*
X011296Y003660D02*
X011769Y003660D01*
X011769Y003663D02*
X011296Y003663D01*
X011296Y003665D02*
X011769Y003665D01*
X011769Y003668D02*
X011296Y003668D01*
X011296Y003670D02*
X011769Y003670D01*
X011769Y003673D02*
X011296Y003673D01*
X011296Y003675D02*
X011769Y003675D01*
X011769Y003677D02*
X011296Y003677D01*
X011296Y003680D02*
X011769Y003680D01*
X011769Y003682D02*
X011296Y003682D01*
X011296Y003685D02*
X011769Y003685D01*
X011769Y003687D02*
X011296Y003687D01*
X011296Y003690D02*
X011769Y003690D01*
X011769Y003692D02*
X011296Y003692D01*
X011296Y003695D02*
X011769Y003695D01*
X011769Y003697D02*
X011296Y003697D01*
X011296Y003699D02*
X011769Y003699D01*
X011769Y003702D02*
X011296Y003702D01*
X011296Y003704D02*
X011769Y003704D01*
X011769Y003707D02*
X011296Y003707D01*
X011296Y003709D02*
X011769Y003709D01*
X011769Y003712D02*
X011296Y003712D01*
X011296Y003714D02*
X011769Y003714D01*
X011769Y003716D02*
X011296Y003716D01*
X011296Y003719D02*
X011769Y003719D01*
X011769Y003721D02*
X011296Y003721D01*
X011296Y003724D02*
X011769Y003724D01*
X011769Y003726D02*
X011296Y003726D01*
X011296Y003729D02*
X011769Y003729D01*
X011769Y003731D02*
X011296Y003731D01*
X011296Y003733D02*
X011769Y003733D01*
X011769Y003736D02*
X011296Y003736D01*
X011296Y003738D02*
X011769Y003738D01*
X011769Y003741D02*
X011296Y003741D01*
X011296Y003743D02*
X011769Y003743D01*
X011769Y003746D02*
X011296Y003746D01*
X011296Y003748D02*
X011769Y003748D01*
X011769Y003751D02*
X011296Y003751D01*
X011296Y003753D02*
X011769Y003753D01*
X011769Y003755D02*
X011296Y003755D01*
X011296Y003758D02*
X011769Y003758D01*
X011769Y003760D02*
X011296Y003760D01*
X011296Y003763D02*
X011769Y003763D01*
X011769Y003765D02*
X011296Y003765D01*
X011296Y003768D02*
X011769Y003768D01*
X011769Y003770D02*
X011296Y003770D01*
X011296Y003772D02*
X011769Y003772D01*
X011769Y003775D02*
X011296Y003775D01*
X011296Y003777D02*
X011769Y003777D01*
X011769Y003780D02*
X011296Y003780D01*
X011296Y003782D02*
X011769Y003782D01*
X011769Y003785D02*
X011296Y003785D01*
X011296Y003787D02*
X011769Y003787D01*
X011769Y003790D02*
X011296Y003790D01*
X011296Y003792D02*
X011769Y003792D01*
X011769Y003794D02*
X011296Y003794D01*
X011296Y003797D02*
X011769Y003797D01*
X011769Y003799D02*
X011296Y003799D01*
X011296Y003802D02*
X011769Y003802D01*
X011769Y003804D02*
X011296Y003804D01*
X011296Y003807D02*
X011769Y003807D01*
X011769Y003809D02*
X011296Y003809D01*
X011296Y003811D02*
X011769Y003811D01*
X011769Y003814D02*
X011296Y003814D01*
X011296Y003816D02*
X011769Y003816D01*
X011769Y003819D02*
X011296Y003819D01*
X011296Y003821D02*
X011769Y003821D01*
X011769Y003824D02*
X011296Y003824D01*
X011296Y003826D02*
X011769Y003826D01*
X011769Y003829D02*
X011296Y003829D01*
X011296Y003831D02*
X011769Y003831D01*
X011769Y003833D02*
X011296Y003833D01*
X011296Y003836D02*
X011769Y003836D01*
X011769Y003838D02*
X011296Y003838D01*
X011296Y003841D02*
X011769Y003841D01*
X011769Y003843D02*
X011296Y003843D01*
X011296Y003846D02*
X011769Y003846D01*
X011769Y003848D02*
X011296Y003848D01*
X011296Y003850D02*
X011769Y003850D01*
X011769Y003853D02*
X011296Y003853D01*
X011296Y003855D02*
X011769Y003855D01*
X011769Y003858D02*
X011296Y003858D01*
X011296Y003860D02*
X011769Y003860D01*
X011769Y003863D02*
X011296Y003863D01*
X011296Y003865D02*
X011769Y003865D01*
X011769Y003868D02*
X011296Y003868D01*
X011296Y003870D02*
X011769Y003870D01*
X011769Y003872D02*
X011296Y003872D01*
X011296Y003875D02*
X011769Y003875D01*
X011769Y003877D02*
X011296Y003877D01*
X011296Y003880D02*
X011769Y003880D01*
X011769Y003882D02*
X011296Y003882D01*
X011296Y003885D02*
X011769Y003885D01*
X011769Y003887D02*
X011296Y003887D01*
X011296Y003889D02*
X011769Y003889D01*
X011769Y003892D02*
X011296Y003892D01*
X011296Y003894D02*
X011769Y003894D01*
X011769Y003897D02*
X011296Y003897D01*
X011296Y003899D02*
X011769Y003899D01*
X011769Y003902D02*
X011296Y003902D01*
X011296Y003904D02*
X011769Y003904D01*
X011769Y003907D02*
X011296Y003907D01*
X011296Y003909D02*
X011769Y003909D01*
X011769Y003911D02*
X011296Y003911D01*
X011296Y003914D02*
X011769Y003914D01*
X011769Y003916D02*
X011296Y003916D01*
X011296Y003919D02*
X011769Y003919D01*
X011769Y003921D02*
X011296Y003921D01*
X011296Y003924D02*
X011769Y003924D01*
X011769Y003926D02*
X011296Y003926D01*
X011296Y003928D02*
X011769Y003928D01*
X011769Y003931D02*
X011296Y003931D01*
X011296Y003933D02*
X011769Y003933D01*
X011769Y003936D02*
X011296Y003936D01*
X011296Y003938D02*
X011769Y003938D01*
X011769Y003941D02*
X011296Y003941D01*
X011296Y003943D02*
X011769Y003943D01*
X011769Y003946D02*
X011296Y003946D01*
X011296Y003948D02*
X011769Y003948D01*
X011769Y003950D02*
X011296Y003950D01*
X011296Y003953D02*
X011769Y003953D01*
X011769Y003955D02*
X011296Y003955D01*
X011296Y003958D02*
X011769Y003958D01*
X011769Y003960D02*
X011296Y003960D01*
X011296Y003963D02*
X011769Y003963D01*
X011769Y003965D02*
X011296Y003965D01*
X011296Y003967D02*
X011769Y003967D01*
X011769Y003970D02*
X011296Y003970D01*
X011296Y003972D02*
X011769Y003972D01*
X011769Y003975D02*
X011296Y003975D01*
X011296Y003977D02*
X011769Y003977D01*
X011769Y003980D02*
X011296Y003980D01*
X011296Y003982D02*
X011769Y003982D01*
X011769Y003985D02*
X011296Y003985D01*
X011296Y003987D02*
X011769Y003987D01*
X011769Y003989D02*
X011296Y003989D01*
X011296Y003992D02*
X011769Y003992D01*
X011768Y003994D02*
X011296Y003994D01*
X011297Y003997D02*
X011768Y003997D01*
X011768Y003999D02*
X011297Y003999D01*
X011297Y004002D02*
X011767Y004002D01*
X011767Y004004D02*
X011298Y004004D01*
X011298Y004006D02*
X011766Y004006D01*
X011766Y004009D02*
X011298Y004009D01*
X011299Y004011D02*
X011766Y004011D01*
X011765Y004014D02*
X011299Y004014D01*
X011299Y004016D02*
X011765Y004016D01*
X011765Y004019D02*
X011300Y004019D01*
X011300Y004021D02*
X011764Y004021D01*
X011764Y004024D02*
X011300Y004024D01*
X011301Y004026D02*
X011763Y004026D01*
X011763Y004028D02*
X011301Y004028D01*
X011301Y004031D02*
X011763Y004031D01*
X011762Y004033D02*
X011302Y004033D01*
X011302Y004036D02*
X011762Y004036D01*
X011762Y004038D02*
X011302Y004038D01*
X011305Y004045D02*
X011760Y004045D01*
X011759Y004048D02*
X011306Y004048D01*
X011307Y004050D02*
X011758Y004050D01*
X011757Y004053D02*
X011308Y004053D01*
X011308Y004055D02*
X011756Y004055D01*
X011755Y004058D02*
X011309Y004058D01*
X011310Y004060D02*
X011754Y004060D01*
X011753Y004063D02*
X011311Y004063D01*
X011312Y004065D02*
X011752Y004065D01*
X011751Y004067D02*
X011313Y004067D01*
X011313Y004070D02*
X011750Y004070D01*
X011749Y004072D02*
X011314Y004072D01*
X011315Y004075D02*
X011749Y004075D01*
X011748Y004077D02*
X011316Y004077D01*
X011317Y004080D02*
X011747Y004080D01*
X011746Y004082D02*
X011318Y004082D01*
X011320Y004084D02*
X011745Y004084D01*
X011744Y004087D02*
X011321Y004087D01*
X011323Y004089D02*
X011743Y004089D01*
X011742Y004092D02*
X011324Y004092D01*
X011325Y004094D02*
X011740Y004094D01*
X011738Y004097D02*
X011327Y004097D01*
X011328Y004099D02*
X011737Y004099D01*
X011735Y004102D02*
X011330Y004102D01*
X011331Y004104D02*
X011733Y004104D01*
X011732Y004106D02*
X011333Y004106D01*
X011334Y004109D02*
X011730Y004109D01*
X011728Y004111D02*
X011335Y004111D01*
X011337Y004114D02*
X011727Y004114D01*
X011725Y004116D02*
X011338Y004116D01*
X011340Y004119D02*
X011723Y004119D01*
X011722Y004121D02*
X011342Y004121D01*
X011344Y004123D02*
X011720Y004123D01*
X011718Y004126D02*
X011346Y004126D01*
X011349Y004128D02*
X011717Y004128D01*
X011710Y004136D02*
X011355Y004136D01*
X011357Y004138D02*
X011708Y004138D01*
X011705Y004141D02*
X011359Y004141D01*
X011362Y004143D02*
X011703Y004143D01*
X011700Y004145D02*
X011364Y004145D01*
X011366Y004148D02*
X011697Y004148D01*
X011695Y004150D02*
X011368Y004150D01*
X011371Y004153D02*
X011692Y004153D01*
X011689Y004155D02*
X011374Y004155D01*
X011377Y004158D02*
X011687Y004158D01*
X011684Y004160D02*
X011380Y004160D01*
X011384Y004162D02*
X011681Y004162D01*
X011679Y004165D02*
X011387Y004165D01*
X011390Y004167D02*
X011676Y004167D01*
X011672Y004170D02*
X011393Y004170D01*
X011397Y004172D02*
X011668Y004172D01*
X011664Y004175D02*
X011400Y004175D01*
X011403Y004177D02*
X011659Y004177D01*
X011655Y004180D02*
X011407Y004180D01*
X011412Y004182D02*
X011651Y004182D01*
X011647Y004184D02*
X011417Y004184D01*
X011422Y004187D02*
X011642Y004187D01*
X011638Y004189D02*
X011427Y004189D01*
X011432Y004192D02*
X011634Y004192D01*
X011628Y004194D02*
X011437Y004194D01*
X011442Y004197D02*
X011620Y004197D01*
X011612Y004199D02*
X011450Y004199D01*
X011459Y004201D02*
X011604Y004201D01*
X011596Y004204D02*
X011468Y004204D01*
X011478Y004206D02*
X011588Y004206D01*
X011571Y004209D02*
X011487Y004209D01*
X011525Y004211D02*
X011538Y004211D01*
X011710Y003380D02*
X011355Y003380D01*
X011357Y003378D02*
X011707Y003378D01*
X011705Y003375D02*
X011360Y003375D01*
X011363Y003373D02*
X011702Y003373D01*
X011699Y003370D02*
X011365Y003370D01*
X011368Y003368D02*
X011697Y003368D01*
X011694Y003365D02*
X011371Y003365D01*
X011373Y003363D02*
X011691Y003363D01*
X011688Y003361D02*
X011376Y003361D01*
X011379Y003358D02*
X011686Y003358D01*
X011683Y003356D02*
X011381Y003356D01*
X011384Y003353D02*
X011680Y003353D01*
X011678Y003351D02*
X011387Y003351D01*
X011389Y003349D02*
X011352Y003383D01*
X011389Y003349D02*
X011433Y003324D01*
X011429Y003326D02*
X011636Y003326D01*
X011640Y003329D02*
X011424Y003329D01*
X011420Y003331D02*
X011645Y003331D01*
X011649Y003334D02*
X011416Y003334D01*
X011411Y003336D02*
X011653Y003336D01*
X011658Y003339D02*
X011407Y003339D01*
X011403Y003341D02*
X011662Y003341D01*
X011666Y003344D02*
X011398Y003344D01*
X011394Y003346D02*
X011671Y003346D01*
X011675Y003348D02*
X011390Y003348D01*
X011519Y003307D02*
X011546Y003307D01*
X011532Y003306D02*
X011583Y003309D01*
D16*
X008831Y006717D03*
X008028Y006920D03*
D17*
X008028Y005920D03*
X010831Y006717D03*
M02*
